<?xml version="1.0" encoding="UTF-8"?>
<svg xmlns="http://www.w3.org/2000/svg" xmlns:xlink="http://www.w3.org/1999/xlink" width="268.01pt" height="131.64pt" viewBox="0 0 268.01 131.64">
<defs>
<g>
<g id="glyph-0-0">
<path d="M 3.609375 -3.625 C 3.3125 -3.5625 3.15625 -3.3125 3.15625 -3.125 C 3.15625 -2.953125 3.28125 -2.8125 3.515625 -2.8125 C 3.75 -2.8125 4 -3.015625 4 -3.34375 C 4 -3.6875 3.6875 -3.953125 3.25 -3.953125 C 2.578125 -3.953125 2.203125 -3.453125 2.078125 -3.28125 C 1.96875 -3.765625 1.5625 -3.953125 1.21875 -3.953125 C 0.90625 -3.953125 0.703125 -3.75 0.546875 -3.4375 C 0.375 -3.125 0.265625 -2.609375 0.265625 -2.578125 C 0.265625 -2.5 0.328125 -2.46875 0.390625 -2.46875 C 0.484375 -2.46875 0.5 -2.515625 0.546875 -2.6875 C 0.71875 -3.390625 0.90625 -3.734375 1.203125 -3.734375 C 1.46875 -3.734375 1.46875 -3.4375 1.46875 -3.3125 C 1.46875 -3.125 1.40625 -2.84375 1.34375 -2.609375 C 1.28125 -2.375 1.203125 -2 1.15625 -1.890625 L 0.796875 -0.421875 C 0.734375 -0.203125 0.734375 -0.1875 0.734375 -0.15625 C 0.734375 -0.046875 0.828125 0.09375 1.015625 0.09375 C 1.3125 0.09375 1.375 -0.140625 1.4375 -0.40625 C 1.53125 -0.78125 1.53125 -0.796875 1.625 -1.171875 C 1.953125 -2.515625 2.015625 -2.71875 2.03125 -2.765625 C 2.078125 -2.875 2.5 -3.734375 3.234375 -3.734375 C 3.4375 -3.734375 3.5625 -3.65625 3.609375 -3.625 Z M 3.609375 -3.625 "/>
</g>
<g id="glyph-0-1">
<path d="M 2.765625 -2.8125 L 4.25 -2.8125 C 5.703125 -2.8125 6.875 -3.796875 6.875 -4.75 C 6.875 -5.453125 6.25 -6.109375 5.078125 -6.109375 L 2.125 -6.109375 C 1.96875 -6.109375 1.859375 -6.109375 1.859375 -5.9375 C 1.859375 -5.828125 1.9375 -5.828125 2.125 -5.828125 C 2.15625 -5.828125 2.328125 -5.828125 2.46875 -5.8125 C 2.625 -5.796875 2.6875 -5.78125 2.6875 -5.671875 C 2.6875 -5.625 2.671875 -5.59375 2.640625 -5.5 L 1.4375 -0.671875 C 1.359375 -0.359375 1.34375 -0.28125 0.671875 -0.28125 C 0.5 -0.28125 0.40625 -0.28125 0.40625 -0.109375 C 0.40625 -0.015625 0.46875 0 0.53125 0 C 0.703125 0 0.921875 -0.015625 1.09375 -0.015625 C 1.375 -0.03125 1.390625 -0.03125 1.671875 -0.03125 C 1.953125 -0.03125 1.96875 -0.03125 2.25 -0.015625 C 2.421875 -0.015625 2.65625 0 2.828125 0 C 2.890625 0 3 0 3 -0.15625 C 3 -0.28125 2.90625 -0.28125 2.71875 -0.28125 C 2.6875 -0.28125 2.53125 -0.28125 2.390625 -0.296875 C 2.1875 -0.328125 2.1875 -0.359375 2.1875 -0.4375 C 2.1875 -0.46875 2.1875 -0.484375 2.21875 -0.640625 Z M 3.40625 -5.484375 C 3.484375 -5.796875 3.5 -5.828125 3.875 -5.828125 L 4.78125 -5.828125 C 5.484375 -5.828125 6.03125 -5.609375 6.03125 -4.953125 C 6.03125 -4.765625 5.9375 -3.9375 5.46875 -3.5 C 5.265625 -3.328125 4.859375 -3.0625 4.09375 -3.0625 L 2.796875 -3.0625 Z M 3.40625 -5.484375 "/>
</g>
<g id="glyph-0-2">
<path d="M 4.390625 -3.609375 C 4.0625 -3.546875 3.96875 -3.265625 3.96875 -3.125 C 3.96875 -2.953125 4.09375 -2.8125 4.3125 -2.8125 C 4.5625 -2.8125 4.8125 -3.015625 4.8125 -3.328125 C 4.8125 -3.75 4.359375 -3.953125 3.9375 -3.953125 C 3.40625 -3.953125 3.09375 -3.484375 2.984375 -3.28125 C 2.8125 -3.734375 2.421875 -3.953125 2 -3.953125 C 1.03125 -3.953125 0.515625 -2.8125 0.515625 -2.578125 C 0.515625 -2.5 0.578125 -2.46875 0.640625 -2.46875 C 0.71875 -2.46875 0.75 -2.515625 0.765625 -2.5625 C 1.046875 -3.453125 1.640625 -3.734375 1.96875 -3.734375 C 2.234375 -3.734375 2.46875 -3.5625 2.46875 -3.140625 C 2.46875 -2.8125 2.078125 -1.390625 1.96875 -0.953125 C 1.890625 -0.671875 1.625 -0.125 1.140625 -0.125 C 0.953125 -0.125 0.765625 -0.1875 0.671875 -0.234375 C 0.921875 -0.28125 1.09375 -0.484375 1.09375 -0.71875 C 1.09375 -0.953125 0.921875 -1.046875 0.765625 -1.046875 C 0.5 -1.046875 0.265625 -0.828125 0.265625 -0.515625 C 0.265625 -0.078125 0.75 0.09375 1.125 0.09375 C 1.640625 0.09375 1.953125 -0.328125 2.078125 -0.578125 C 2.3125 0.015625 2.828125 0.09375 3.078125 0.09375 C 4.046875 0.09375 4.546875 -1.0625 4.546875 -1.28125 C 4.546875 -1.328125 4.515625 -1.390625 4.4375 -1.390625 C 4.328125 -1.390625 4.328125 -1.34375 4.28125 -1.21875 C 4.078125 -0.578125 3.5625 -0.125 3.09375 -0.125 C 2.84375 -0.125 2.59375 -0.28125 2.59375 -0.71875 C 2.59375 -0.90625 2.71875 -1.40625 2.8125 -1.75 C 2.84375 -1.90625 3.078125 -2.875 3.09375 -2.9375 C 3.203125 -3.25 3.484375 -3.734375 3.9375 -3.734375 C 4.09375 -3.734375 4.265625 -3.703125 4.390625 -3.609375 Z M 4.390625 -3.609375 "/>
</g>
<g id="glyph-1-0">
<path d="M 0.96875 -1.96875 C 0.96875 -2.265625 0.984375 -2.765625 1.203125 -3.125 C 1.453125 -3.578125 1.84375 -3.765625 2.203125 -3.765625 C 2.34375 -3.765625 2.625 -3.734375 2.765625 -3.578125 C 2.546875 -3.53125 2.5 -3.375 2.5 -3.28125 C 2.5 -3.125 2.609375 -3 2.796875 -3 C 2.96875 -3 3.078125 -3.109375 3.078125 -3.296875 C 3.078125 -3.65625 2.8125 -3.953125 2.203125 -3.953125 C 1.28125 -3.953125 0.375 -3.15625 0.375 -1.890625 C 0.375 -0.4375 1.046875 0.125 1.828125 0.125 C 2.0625 0.125 2.46875 0.09375 2.828125 -0.265625 C 3.03125 -0.453125 3.25 -0.6875 3.25 -1.21875 C 3.25 -1.421875 3.234375 -1.796875 2.875 -2.140625 C 2.65625 -2.328125 2.40625 -2.53125 1.890625 -2.53125 C 1.46875 -2.53125 1.171875 -2.328125 0.96875 -1.96875 Z M 1.828125 -0.09375 C 0.984375 -0.09375 0.984375 -1.109375 0.984375 -1.34375 C 0.984375 -1.859375 1.328125 -2.34375 1.859375 -2.34375 C 2.171875 -2.34375 2.34375 -2.21875 2.5 -2.03125 C 2.65625 -1.796875 2.65625 -1.53125 2.65625 -1.21875 C 2.65625 -0.796875 2.65625 -0.59375 2.453125 -0.359375 C 2.296875 -0.1875 2.109375 -0.09375 1.828125 -0.09375 Z M 1.828125 -0.09375 "/>
</g>
<g id="glyph-1-1">
<path d="M 2.140625 -3.78125 C 2.140625 -3.953125 2.109375 -3.953125 1.9375 -3.953125 C 1.546875 -3.578125 0.9375 -3.578125 0.71875 -3.578125 L 0.71875 -3.34375 C 0.875 -3.34375 1.265625 -3.34375 1.625 -3.515625 L 1.625 -0.5 C 1.625 -0.3125 1.625 -0.234375 1.015625 -0.234375 L 0.75 -0.234375 L 0.75 0 C 1.078125 -0.03125 1.546875 -0.03125 1.875 -0.03125 C 2.21875 -0.03125 2.671875 -0.03125 3 0 L 3 -0.234375 L 2.75 -0.234375 C 2.140625 -0.234375 2.140625 -0.3125 2.140625 -0.5 Z M 2.140625 -3.78125 "/>
</g>
<g id="glyph-1-2">
<path d="M 3.203125 -1.109375 L 2.984375 -1.109375 C 2.96875 -1.03125 2.90625 -0.640625 2.828125 -0.578125 C 2.78125 -0.53125 2.296875 -0.53125 2.21875 -0.53125 L 1.09375 -0.53125 L 1.859375 -1.15625 C 2.0625 -1.3125 2.59375 -1.703125 2.78125 -1.875 C 2.953125 -2.046875 3.203125 -2.359375 3.203125 -2.78125 C 3.203125 -3.53125 2.53125 -3.953125 1.734375 -3.953125 C 0.96875 -3.953125 0.421875 -3.453125 0.421875 -2.890625 C 0.421875 -2.59375 0.6875 -2.546875 0.75 -2.546875 C 0.90625 -2.546875 1.078125 -2.65625 1.078125 -2.875 C 1.078125 -3 1 -3.203125 0.734375 -3.203125 C 0.875 -3.5 1.234375 -3.734375 1.640625 -3.734375 C 2.265625 -3.734375 2.59375 -3.265625 2.59375 -2.78125 C 2.59375 -2.359375 2.328125 -1.921875 1.90625 -1.546875 L 0.5 -0.25 C 0.4375 -0.1875 0.421875 -0.1875 0.421875 0 L 3.015625 0 Z M 3.203125 -1.109375 "/>
</g>
<g id="glyph-1-3">
<path d="M 1.015625 -3.296875 C 1.203125 -3.25 1.421875 -3.234375 1.625 -3.234375 C 1.75 -3.234375 2.078125 -3.234375 2.453125 -3.4375 C 2.5625 -3.5 2.921875 -3.734375 2.921875 -3.859375 C 2.921875 -3.9375 2.875 -3.953125 2.84375 -3.953125 C 2.828125 -3.953125 2.828125 -3.953125 2.75 -3.9375 C 2.546875 -3.859375 2.234375 -3.765625 1.84375 -3.765625 C 1.5625 -3.765625 1.234375 -3.828125 0.96875 -3.921875 C 0.90625 -3.953125 0.890625 -3.953125 0.859375 -3.953125 C 0.78125 -3.953125 0.78125 -3.890625 0.78125 -3.796875 L 0.78125 -2.015625 C 0.78125 -1.90625 0.78125 -1.84375 0.890625 -1.84375 C 0.9375 -1.84375 0.953125 -1.859375 1 -1.90625 C 1.15625 -2.09375 1.40625 -2.296875 1.875 -2.296875 C 2.609375 -2.296875 2.609375 -1.40625 2.609375 -1.21875 C 2.609375 -0.984375 2.59375 -0.65625 2.390625 -0.40625 C 2.203125 -0.1875 1.9375 -0.09375 1.671875 -0.09375 C 1.265625 -0.09375 0.859375 -0.3125 0.71875 -0.65625 C 1 -0.671875 1.046875 -0.90625 1.046875 -0.96875 C 1.046875 -1.125 0.921875 -1.28125 0.734375 -1.28125 C 0.671875 -1.28125 0.421875 -1.25 0.421875 -0.953125 C 0.421875 -0.40625 0.953125 0.125 1.703125 0.125 C 2.515625 0.125 3.203125 -0.453125 3.203125 -1.203125 C 3.203125 -1.875 2.65625 -2.5 1.890625 -2.5 C 1.5 -2.5 1.203125 -2.375 1.015625 -2.203125 Z M 1.015625 -3.296875 "/>
</g>
<g id="glyph-1-4">
<path d="M 1.75 -1.96875 C 2.25 -1.96875 2.59375 -1.640625 2.59375 -1.03125 C 2.59375 -0.375 2.203125 -0.09375 1.765625 -0.09375 C 1.609375 -0.09375 1 -0.125 0.71875 -0.46875 C 0.953125 -0.5 1.046875 -0.65625 1.046875 -0.8125 C 1.046875 -1.015625 0.90625 -1.15625 0.71875 -1.15625 C 0.546875 -1.15625 0.375 -1.046875 0.375 -0.796875 C 0.375 -0.203125 1.03125 0.125 1.78125 0.125 C 2.671875 0.125 3.25 -0.4375 3.25 -1.03125 C 3.25 -1.46875 2.921875 -1.921875 2.21875 -2.09375 C 2.6875 -2.25 3.0625 -2.640625 3.0625 -3.125 C 3.0625 -3.609375 2.5 -3.953125 1.796875 -3.953125 C 1.09375 -3.953125 0.5625 -3.640625 0.5625 -3.15625 C 0.5625 -2.890625 0.765625 -2.828125 0.875 -2.828125 C 1.03125 -2.828125 1.203125 -2.921875 1.203125 -3.140625 C 1.203125 -3.328125 1.0625 -3.421875 0.90625 -3.453125 C 1.1875 -3.765625 1.71875 -3.765625 1.78125 -3.765625 C 2.078125 -3.765625 2.46875 -3.625 2.46875 -3.125 C 2.46875 -2.796875 2.28125 -2.21875 1.6875 -2.1875 C 1.578125 -2.1875 1.421875 -2.171875 1.359375 -2.171875 C 1.296875 -2.171875 1.234375 -2.15625 1.234375 -2.078125 C 1.234375 -1.96875 1.296875 -1.96875 1.40625 -1.96875 Z M 1.75 -1.96875 "/>
</g>
<g id="glyph-1-5">
<path d="M 3.359375 -0.96875 L 3.359375 -1.203125 L 2.65625 -1.203125 L 2.65625 -3.84375 C 2.65625 -3.984375 2.65625 -4.015625 2.515625 -4.015625 C 2.40625 -4.015625 2.390625 -4 2.34375 -3.921875 L 0.28125 -1.203125 L 0.28125 -0.96875 L 2.125 -0.96875 L 2.125 -0.5 C 2.125 -0.296875 2.125 -0.234375 1.625 -0.234375 L 1.453125 -0.234375 L 1.453125 0 C 1.578125 0 2.125 -0.03125 2.390625 -0.03125 C 2.65625 -0.03125 3.21875 0 3.328125 0 L 3.328125 -0.234375 L 3.15625 -0.234375 C 2.65625 -0.234375 2.65625 -0.296875 2.65625 -0.5 L 2.65625 -0.96875 Z M 2.171875 -3.375 L 2.171875 -1.203125 L 0.53125 -1.203125 Z M 2.171875 -3.375 "/>
</g>
<g id="glyph-2-0">
<path d="M 1.75 -2.25 C 1.75 -2.5 1.546875 -2.71875 1.265625 -2.71875 C 0.984375 -2.71875 0.78125 -2.5 0.78125 -2.25 C 0.78125 -1.984375 0.984375 -1.765625 1.265625 -1.765625 C 1.546875 -1.765625 1.75 -1.984375 1.75 -2.25 Z M 1.75 -2.25 "/>
</g>
</g>
<clipPath id="clip-0">
<path clip-rule="nonzero" d="M 129 0.0625 L 178 0.0625 L 178 25 L 129 25 Z M 129 0.0625 "/>
</clipPath>
</defs>
<g clip-path="url(#clip-0)">
<path fill="none" stroke-width="0.79701" stroke-linecap="butt" stroke-linejoin="miter" stroke="rgb(78.431702%, 23.527527%, 23.527527%)" stroke-opacity="1" stroke-miterlimit="10" d="M 150.657902 130.143847 L 127.137747 130.143847 C 126.588851 130.143847 126.141894 129.696889 126.141894 129.147994 L 126.141894 120.302942 C 126.141894 119.754047 126.588851 119.307089 127.137747 119.307089 L 150.657902 119.307089 C 151.210717 119.307089 151.653754 119.754047 151.653754 120.302942 L 151.653754 129.147994 C 151.653754 129.696889 151.210717 130.143847 150.657902 130.143847 Z M 150.657902 130.143847 " transform="matrix(0.99632, 0, 0, -0.99632, 14.892658, 132.110191)"/>
</g>
<g fill="rgb(0%, 0%, 0%)" fill-opacity="1">
<use xlink:href="#glyph-0-0" x="149.141358" y="9.270328"/>
</g>
<g fill="rgb(0%, 0%, 0%)" fill-opacity="1">
<use xlink:href="#glyph-1-0" x="153.284065" y="10.262912"/>
</g>
<path fill-rule="nonzero" fill="rgb(80.880737%, 87.742615%, 92.64679%)" fill-opacity="1" stroke-width="0.3985" stroke-linecap="butt" stroke-linejoin="miter" stroke="rgb(0%, 0%, 0%)" stroke-opacity="1" stroke-miterlimit="10" d="M 71.28767 94.426459 L 47.767516 94.426459 C 47.21862 94.426459 46.771663 93.979501 46.771663 93.430606 L 46.771663 82.319401 C 46.771663 81.770506 47.21862 81.323549 47.767516 81.323549 L 71.28767 81.323549 C 71.836566 81.323549 72.283523 81.770506 72.283523 82.319401 L 72.283523 93.430606 C 72.283523 93.979501 71.836566 94.426459 71.28767 94.426459 Z M 71.28767 94.426459 " transform="matrix(0.99632, 0, 0, -0.99632, 14.892658, 132.110191)"/>
<g fill="rgb(0%, 0%, 0%)" fill-opacity="1">
<use xlink:href="#glyph-0-1" x="69.203012" y="47.114297"/>
</g>
<g fill="rgb(0%, 0%, 0%)" fill-opacity="1">
<use xlink:href="#glyph-1-1" x="75.065157" y="48.10688"/>
</g>
<path fill-rule="nonzero" fill="rgb(80.880737%, 87.742615%, 92.64679%)" fill-opacity="1" stroke-width="0.79701" stroke-linecap="butt" stroke-linejoin="miter" stroke="rgb(78.431702%, 23.527527%, 23.527527%)" stroke-opacity="1" stroke-miterlimit="10" d="M 230.032053 94.426459 L 206.511898 94.426459 C 205.959083 94.426459 205.516046 93.979501 205.516046 93.430606 L 205.516046 82.319401 C 205.516046 81.770506 205.959083 81.323549 206.511898 81.323549 L 230.032053 81.323549 C 230.580948 81.323549 231.027906 81.770506 231.027906 82.319401 L 231.027906 93.430606 C 231.027906 93.979501 230.580948 94.426459 230.032053 94.426459 Z M 230.032053 94.426459 " transform="matrix(0.99632, 0, 0, -0.99632, 14.892658, 132.110191)"/>
<g fill="rgb(0%, 0%, 0%)" fill-opacity="1">
<use xlink:href="#glyph-0-1" x="227.360664" y="47.114297"/>
</g>
<g fill="rgb(0%, 0%, 0%)" fill-opacity="1">
<use xlink:href="#glyph-1-2" x="233.22281" y="48.10688"/>
</g>
<path fill="none" stroke-width="0.3985" stroke-linecap="butt" stroke-linejoin="miter" stroke="rgb(0%, 0%, 0%)" stroke-opacity="1" stroke-miterlimit="10" d="M 31.602555 53.196595 L 8.0824 53.196595 C 7.533505 53.196595 7.086547 52.749638 7.086547 52.196822 L 7.086547 44.179033 C 7.086547 43.630138 7.533505 43.183181 8.0824 43.183181 L 31.602555 43.183181 C 32.15145 43.183181 32.598407 43.630138 32.598407 44.179033 L 32.598407 52.196822 C 32.598407 52.749638 32.15145 53.196595 31.602555 53.196595 Z M 31.602555 53.196595 " transform="matrix(0.99632, 0, 0, -0.99632, 14.892658, 132.110191)"/>
<g fill="rgb(0%, 0%, 0%)" fill-opacity="1">
<use xlink:href="#glyph-2-0" x="33.387072" y="86.10741"/>
</g>
<path fill="none" stroke-width="0.3985" stroke-linecap="butt" stroke-linejoin="miter" stroke="rgb(0%, 0%, 0%)" stroke-opacity="1" stroke-miterlimit="10" d="M 110.972786 53.196595 L 87.452631 53.196595 C 86.903736 53.196595 86.456779 52.749638 86.456779 52.196822 L 86.456779 44.179033 C 86.456779 43.630138 86.903736 43.183181 87.452631 43.183181 L 110.972786 43.183181 C 111.525602 43.183181 111.968639 43.630138 111.968639 44.179033 L 111.968639 52.196822 C 111.968639 52.749638 111.525602 53.196595 110.972786 53.196595 Z M 110.972786 53.196595 " transform="matrix(0.99632, 0, 0, -0.99632, 14.892658, 132.110191)"/>
<g fill="rgb(0%, 0%, 0%)" fill-opacity="1">
<use xlink:href="#glyph-2-0" x="112.466112" y="86.10741"/>
</g>
<path fill="none" stroke-width="0.3985" stroke-linecap="butt" stroke-linejoin="miter" stroke="rgb(0%, 0%, 0%)" stroke-opacity="1" stroke-miterlimit="10" d="M 185.673488 42.771509 L 211.185348 42.771509 L 211.185348 53.608267 L 185.673488 53.608267 Z M 185.673488 42.771509 " transform="matrix(0.99632, 0, 0, -0.99632, 14.892658, 132.110191)"/>
<g fill="rgb(0%, 0%, 0%)" fill-opacity="1">
<use xlink:href="#glyph-0-2" x="207.919996" y="85.524952"/>
</g>
<g fill="rgb(0%, 0%, 0%)" fill-opacity="1">
<use xlink:href="#glyph-1-3" x="213.124222" y="86.517536"/>
</g>
<path fill="none" stroke-width="0.3985" stroke-linecap="butt" stroke-linejoin="miter" stroke="rgb(0%, 0%, 0%)" stroke-opacity="1" stroke-miterlimit="10" d="M 225.358604 42.771509 L 250.870464 42.771509 L 250.870464 53.608267 L 225.358604 53.608267 Z M 225.358604 42.771509 " transform="matrix(0.99632, 0, 0, -0.99632, 14.892658, 132.110191)"/>
<g fill="rgb(0%, 0%, 0%)" fill-opacity="1">
<use xlink:href="#glyph-0-2" x="247.459302" y="85.524952"/>
</g>
<g fill="rgb(0%, 0%, 0%)" fill-opacity="1">
<use xlink:href="#glyph-1-0" x="252.663528" y="86.517536"/>
</g>
<path fill="none" stroke-width="0.3985" stroke-linecap="butt" stroke-linejoin="miter" stroke="rgb(0%, 0%, 0%)" stroke-opacity="1" stroke-miterlimit="10" d="M -12.75601 3.086394 L 12.75585 3.086394 L 12.75585 13.923151 L -12.75601 13.923151 Z M -12.75601 3.086394 " transform="matrix(0.99632, 0, 0, -0.99632, 14.892658, 132.110191)"/>
<g fill="rgb(0%, 0%, 0%)" fill-opacity="1">
<use xlink:href="#glyph-0-2" x="10.222609" y="125.064258"/>
</g>
<g fill="rgb(0%, 0%, 0%)" fill-opacity="1">
<use xlink:href="#glyph-1-1" x="15.426835" y="126.056842"/>
</g>
<path fill="none" stroke-width="0.3985" stroke-linecap="butt" stroke-linejoin="miter" stroke="rgb(0%, 0%, 0%)" stroke-opacity="1" stroke-miterlimit="10" d="M 26.929105 3.086394 L 52.440965 3.086394 L 52.440965 13.923151 L 26.929105 13.923151 Z M 26.929105 3.086394 " transform="matrix(0.99632, 0, 0, -0.99632, 14.892658, 132.110191)"/>
<g fill="rgb(0%, 0%, 0%)" fill-opacity="1">
<use xlink:href="#glyph-0-2" x="49.761905" y="125.064258"/>
</g>
<g fill="rgb(0%, 0%, 0%)" fill-opacity="1">
<use xlink:href="#glyph-1-2" x="54.966131" y="126.056842"/>
</g>
<path fill="none" stroke-width="0.3985" stroke-linecap="butt" stroke-linejoin="miter" stroke="rgb(0%, 0%, 0%)" stroke-opacity="1" stroke-miterlimit="10" d="M 66.614221 3.086394 L 92.126081 3.086394 L 92.126081 13.923151 L 66.614221 13.923151 Z M 66.614221 3.086394 " transform="matrix(0.99632, 0, 0, -0.99632, 14.892658, 132.110191)"/>
<g fill="rgb(0%, 0%, 0%)" fill-opacity="1">
<use xlink:href="#glyph-0-2" x="89.301639" y="125.064258"/>
</g>
<g fill="rgb(0%, 0%, 0%)" fill-opacity="1">
<use xlink:href="#glyph-1-4" x="94.505866" y="126.056842"/>
</g>
<path fill="none" stroke-width="0.3985" stroke-linecap="butt" stroke-linejoin="miter" stroke="rgb(0%, 0%, 0%)" stroke-opacity="1" stroke-miterlimit="10" d="M 106.299336 3.086394 L 131.811196 3.086394 L 131.811196 13.923151 L 106.299336 13.923151 Z M 106.299336 3.086394 " transform="matrix(0.99632, 0, 0, -0.99632, 14.892658, 132.110191)"/>
<g fill="rgb(0%, 0%, 0%)" fill-opacity="1">
<use xlink:href="#glyph-0-2" x="128.840945" y="125.064258"/>
</g>
<g fill="rgb(0%, 0%, 0%)" fill-opacity="1">
<use xlink:href="#glyph-1-5" x="134.045172" y="126.056842"/>
</g>
<path fill="none" stroke-width="0.3985" stroke-linecap="butt" stroke-linejoin="miter" stroke="rgb(0%, 0%, 0%)" stroke-opacity="1" stroke-miterlimit="10" d="M 126.377135 118.911101 L 72.483478 93.885405 " transform="matrix(0.99632, 0, 0, -0.99632, 14.892658, 132.110191)"/>
<path fill="none" stroke-width="0.79701" stroke-linecap="butt" stroke-linejoin="miter" stroke="rgb(78.431702%, 23.527527%, 23.527527%)" stroke-opacity="1" stroke-miterlimit="10" d="M 151.422434 118.911101 L 205.116137 93.979501 " transform="matrix(0.99632, 0, 0, -0.99632, 14.892658, 132.110191)"/>
<path fill="none" stroke-width="0.3985" stroke-linecap="butt" stroke-linejoin="miter" stroke="rgb(0%, 0%, 0%)" stroke-opacity="1" stroke-miterlimit="10" d="M 52.782064 81.123594 L 25.047179 53.392629 " transform="matrix(0.99632, 0, 0, -0.99632, 14.892658, 132.110191)"/>
<path fill="none" stroke-width="0.3985" stroke-linecap="butt" stroke-linejoin="miter" stroke="rgb(0%, 0%, 0%)" stroke-opacity="1" stroke-miterlimit="10" d="M 66.277042 81.123594 L 94.008007 53.392629 " transform="matrix(0.99632, 0, 0, -0.99632, 14.892658, 132.110191)"/>
<path fill="none" stroke-width="0.3985" stroke-linecap="butt" stroke-linejoin="miter" stroke="rgb(0%, 0%, 0%)" stroke-opacity="1" stroke-miterlimit="10" d="M 214.796294 80.92756 L 201.234664 53.804301 " transform="matrix(0.99632, 0, 0, -0.99632, 14.892658, 132.110191)"/>
<path fill="none" stroke-width="0.3985" stroke-linecap="butt" stroke-linejoin="miter" stroke="rgb(0%, 0%, 0%)" stroke-opacity="1" stroke-miterlimit="10" d="M 221.743737 80.92756 L 235.305367 53.804301 " transform="matrix(0.99632, 0, 0, -0.99632, 14.892658, 132.110191)"/>
<path fill="none" stroke-width="0.3985" stroke-linecap="butt" stroke-linejoin="miter" stroke="rgb(0%, 0%, 0%)" stroke-opacity="1" stroke-miterlimit="10" d="M 17.241107 42.983226 L 2.809086 14.119185 " transform="matrix(0.99632, 0, 0, -0.99632, 14.892658, 132.110191)"/>
<path fill="none" stroke-width="0.3985" stroke-linecap="butt" stroke-linejoin="miter" stroke="rgb(0%, 0%, 0%)" stroke-opacity="1" stroke-miterlimit="10" d="M 22.443848 42.983226 L 36.875869 14.119185 " transform="matrix(0.99632, 0, 0, -0.99632, 14.892658, 132.110191)"/>
<path fill="none" stroke-width="0.3985" stroke-linecap="butt" stroke-linejoin="miter" stroke="rgb(0%, 0%, 0%)" stroke-opacity="1" stroke-miterlimit="10" d="M 96.611338 42.983226 L 82.179317 14.119185 " transform="matrix(0.99632, 0, 0, -0.99632, 14.892658, 132.110191)"/>
<path fill="none" stroke-width="0.3985" stroke-linecap="butt" stroke-linejoin="miter" stroke="rgb(0%, 0%, 0%)" stroke-opacity="1" stroke-miterlimit="10" d="M 101.814079 42.983226 L 116.25002 14.119185 " transform="matrix(0.99632, 0, 0, -0.99632, 14.892658, 132.110191)"/>
</svg>
